<?xml version="1.0" encoding="utf-8"?>
<!-- Generator: Adobe Illustrator 16.0.3, SVG Export Plug-In . SVG Version: 6.00 Build 0)  -->
<!DOCTYPE svg PUBLIC "-//W3C//DTD SVG 1.1//EN" "http://www.w3.org/Graphics/SVG/1.1/DTD/svg11.dtd">
<svg version="1.1" id="Layer_1" xmlns="http://www.w3.org/2000/svg" xmlns:xlink="http://www.w3.org/1999/xlink" x="0px" y="0px"
	 width="800px" height="167.025px" viewBox="0 0 800 167.025" enable-background="new 0 0 800 167.025" xml:space="preserve">
<radialGradient id="SVGID_1_" cx="384" cy="4505.5967" r="399.1572" gradientTransform="matrix(1 0 0 0.2045 16 -837.8821)" gradientUnits="userSpaceOnUse">
	<stop  offset="0" style="stop-color:#D6D6D6"/>
	<stop  offset="1" style="stop-color:#C2C2C2"/>
</radialGradient>
<rect y="0" fill="url(#SVGID_1_)" width="800" height="167.025"/>
<g>
	<path fill="#5F5877" d="M112.167,153.708V16.27h60.938c12.249,0,21.563,1.233,27.938,3.703s11.468,6.828,15.281,13.077
		c3.812,6.25,5.719,13.157,5.719,20.72c0,9.75-3.157,17.969-9.469,24.655c-6.313,6.688-16.063,10.938-29.25,12.75
		c4.812,2.313,8.468,4.595,10.969,6.845c5.312,4.875,10.343,10.969,15.094,18.28l23.906,37.406h-22.875l-18.188-28.594
		c-5.313-8.25-9.688-14.563-13.125-18.938c-3.438-4.374-6.516-7.438-9.234-9.188c-2.719-1.749-5.484-2.968-8.297-3.656
		c-2.063-0.437-5.438-0.656-10.125-0.656h-21.094v61.031h-18.188V153.708z M130.354,76.927h39.094c8.312,0,14.813-0.857,19.5-2.577
		c4.688-1.72,8.25-4.469,10.688-8.25s3.656-7.891,3.656-12.328c0-6.5-2.36-11.845-7.078-16.031
		c-4.72-4.187-12.173-6.281-22.359-6.281h-43.5L130.354,76.927L130.354,76.927z"/>
	<path fill="#5F5877" d="M250.542,153.708V16.27h51.844c9.125,0,16.093,0.438,20.906,1.313c6.75,1.125,12.406,3.268,16.969,6.422
		c4.562,3.156,8.234,7.579,11.016,13.267c2.78,5.688,4.172,11.938,4.172,18.75c0,11.688-3.719,21.578-11.156,29.672
		c-7.438,8.095-20.875,12.141-40.313,12.141h-35.25v55.875L250.542,153.708L250.542,153.708z M268.729,81.614h35.531
		c11.75,0,20.093-2.188,25.031-6.563c4.937-4.374,7.406-10.53,7.406-18.469c0-5.75-1.453-10.672-4.359-14.766
		c-2.906-4.093-6.735-6.797-11.484-8.109c-3.063-0.812-8.719-1.219-16.969-1.219h-35.156V81.614z"/>
	<path fill="#5F5877" d="M379.167,153.708V16.27h18.188v56.438h71.437V16.27h18.188v137.438h-18.188V88.927h-71.437v64.781H379.167z
		"/>
	<path fill="#5F5877" d="M580.354,153.708v-14.625c-7.75,11.25-18.28,16.875-31.594,16.875c-5.875,0-11.358-1.125-16.453-3.375
		c-5.094-2.25-8.875-5.077-11.344-8.483s-4.203-7.578-5.203-12.517c-0.688-3.313-1.031-8.563-1.031-15.75V54.145h16.875v55.219
		c0,8.813,0.345,14.751,1.031,17.813c1.063,4.438,3.313,7.923,6.75,10.453c3.438,2.531,7.688,3.797,12.75,3.797
		c5.063,0,9.813-1.297,14.25-3.891c4.438-2.593,7.578-6.125,9.422-10.594c1.845-4.468,2.767-10.953,2.767-19.453V54.145h16.875
		v99.563H580.354z"/>
	<path fill="#5F5877" d="M637.447,153.708h-15.656V16.27h16.875v49.03c7.125-8.938,16.219-13.405,27.281-13.405
		c6.125,0,11.922,1.233,17.391,3.703s9.969,5.938,13.5,10.405c3.531,4.47,6.297,9.859,8.297,16.172c2,6.313,3,13.063,3,20.25
		c0,17.063-4.219,30.25-12.656,39.563c-8.438,9.313-18.563,13.969-30.375,13.969c-11.75,0-20.969-4.906-27.655-14.719
		L637.447,153.708L637.447,153.708z M637.26,103.177c0,11.938,1.625,20.563,4.875,25.875c5.313,8.688,12.5,13.031,21.563,13.031
		c7.375,0,13.75-3.202,19.125-9.608s8.063-15.952,8.063-28.642c0-12.999-2.578-22.594-7.733-28.781
		c-5.156-6.187-11.392-9.28-18.703-9.28c-7.375,0-13.75,3.203-19.125,9.608C639.947,81.787,637.26,91.052,637.26,103.177z"/>
</g>
</svg>
