<?xml version="1.0" encoding="utf-8"?>
<!-- Generator: Adobe Illustrator 16.0.3, SVG Export Plug-In . SVG Version: 6.00 Build 0)  -->
<!DOCTYPE svg PUBLIC "-//W3C//DTD SVG 1.1//EN" "http://www.w3.org/Graphics/SVG/1.1/DTD/svg11.dtd">
<svg version="1.1" id="Layer_1" xmlns="http://www.w3.org/2000/svg" xmlns:xlink="http://www.w3.org/1999/xlink" x="0px" y="0px"
	 width="800px" height="167.025px" viewBox="0 0 800 167.025" enable-background="new 0 0 800 167.025" xml:space="preserve">
<radialGradient id="SVGID_1_" cx="296" cy="6806.6221" r="399.1552" gradientTransform="matrix(1 0 0 0.2045 104 -1308.4417)" gradientUnits="userSpaceOnUse">
	<stop  offset="0" style="stop-color:#D6D6D6"/>
	<stop  offset="1" style="stop-color:#EEEEEE"/>
</radialGradient>
<rect y="0" fill="url(#SVGID_1_)" width="800" height="167.025"/>
<g>
	<path d="M184.149,102.723c0.844,5.625,1.85,10.781,3.023,15.469c1.172,4.688,2.086,8.768,2.742,12.233
		c0.654,3.471,0.82,6.282,0.492,8.438c-0.33,2.158-1.57,3.516-3.727,4.078c-0.281,0.752-0.773,0.281-1.477-1.406
		c-0.704-1.687-1.547-4.17-2.531-7.453c-0.984-3.28-2.039-7.242-3.164-11.883s-2.229-9.563-3.305-14.766
		c-1.078-5.203-2.063-10.522-2.953-15.961c-0.893-5.437-1.596-10.663-2.109-15.681c-0.516-5.014-0.773-9.607-0.773-13.781
		c0-4.17,0.373-7.568,1.125-10.194c1.498-1.125,2.834-1.428,4.008-0.914c1.172,0.517,2.086,1.406,2.742,2.672
		c0.654,1.266,1.076,2.72,1.266,4.359c0.188,1.642,0.141,3.117-0.141,4.43c0.092,0.563,0.303,1.525,0.633,2.883
		c0.328,1.36,0.68,2.813,1.055,4.359c0.373,1.547,0.75,3.001,1.125,4.358c0.373,1.36,0.654,2.32,0.844,2.884
		c1.779-0.188,4.381-0.515,7.805-0.984c3.422-0.468,7.123-1.101,11.109-1.898c3.984-0.795,8.063-1.758,12.234-2.883
		c4.17-1.125,7.967-2.461,11.391-4.008c3.422-1.547,6.209-3.305,8.367-5.273c2.156-1.969,3.234-4.17,3.234-6.608
		c0-0.188-0.023-0.492-0.07-0.914c-0.049-0.422-0.07-0.679-0.07-0.773c-3.564-4.029-7.15-7.264-10.758-9.703
		c-3.609-2.437-7.432-4.265-11.461-5.483c-4.031-1.217-8.297-2.015-12.797-2.392c-4.5-0.373-9.33-0.563-14.484-0.563
		c-3.75,0-7.688,0.024-11.813,0.07c-4.127,0.048-7.898,0.587-11.32,1.616c-3.423,1.033-6.258,2.861-8.508,5.484
		c-2.25,2.626-3.375,6.469-3.375,11.531c-1.125,0-2.133-0.374-3.023-1.125c-0.892-0.749-1.665-1.663-2.32-2.742
		c-0.654-1.077-1.17-2.226-1.547-3.445c-0.373-1.217-0.563-2.25-0.563-3.094c0-1.78,0.4-3.445,1.195-4.992
		c0.796-1.547,1.805-2.953,3.023-4.219c1.218-1.266,2.602-2.413,4.148-3.445c1.547-1.029,3.023-1.92,4.43-2.672
		c3.938-0.749,7.453-1.382,10.547-1.897c3.094-0.515,6.023-0.914,8.789-1.195c2.764-0.281,5.555-0.468,8.367-0.563
		c2.813-0.092,5.953-0.141,9.422-0.141c3.467,0,7.172,0.281,11.109,0.844c3.937,0.563,7.875,1.406,11.813,2.531
		s7.711,2.603,11.32,4.43c3.607,1.828,6.82,4.009,9.633,6.539c2.813,2.531,5.039,5.462,6.68,8.789
		c1.639,3.329,2.461,7.057,2.461,11.181c0,3.655-1.148,6.845-3.445,9.563c-2.299,2.72-5.297,5.087-9,7.103
		c-3.705,2.018-7.854,3.704-12.445,5.063c-4.594,1.36-9.164,2.58-13.711,3.656c-4.549,1.079-8.838,2.018-12.867,2.813
		c-4.031,0.798-7.313,1.617-9.844,2.461c6.279,8.627,12.492,15.961,18.633,22.009c6.139,6.047,11.904,11.134,17.297,15.258
		c5.391,4.127,10.266,7.478,14.625,10.055c4.359,2.58,7.896,4.711,10.617,6.398c2.719,1.688,4.451,3.068,5.203,4.147
		c0.75,1.076,0.232,2.227-1.547,3.445c-1.406,1.688-3.656,2.085-6.75,1.195c-3.094-0.894-6.68-2.603-10.758-5.134
		c-4.078-2.53-8.438-5.694-13.078-9.491c-4.64-3.798-9.211-7.757-13.711-11.884c-4.5-4.124-8.768-8.201-12.797-12.233
		C190.384,109.241,186.962,105.725,184.149,102.723z"/>
	<path d="M302.679,144.348c-1.782-3.095-3.234-7.123-4.359-12.095c-1.125-4.968-2.088-10.125-2.883-15.469
		c-0.798-5.344-1.455-10.406-1.969-15.188c-0.517-4.781-1.055-8.529-1.617-11.25V58.005c0-1.405,0.584-2.693,1.758-3.866
		c1.171-1.172,2.412-1.759,3.727-1.759c0.187,0,0.492,0.024,0.914,0.07c0.422,0.048,0.679,0.07,0.773,0.07
		c0.563,3.375,0.936,6.819,1.125,10.336c0.187,3.516,0.397,7.031,0.633,10.547c0.232,3.516,0.608,7.01,1.125,10.477
		c0.514,3.471,1.382,6.846,2.602,10.125c2.061,0.472,4.219,0.822,6.469,1.056c2.25,0.234,4.873,0.445,7.875,0.633
		c3.28,0,6.82-0.538,10.617-1.617c3.797-1.076,7.334-2.623,10.617-4.641c3.28-2.016,5.998-4.477,8.156-7.384
		c2.155-2.903,3.234-6.188,3.234-9.844c0-3.938-1.29-7.453-3.867-10.547c-2.58-3.094-5.931-5.836-10.055-8.227
		c-4.127-2.392-8.697-4.452-13.711-6.188c-5.017-1.732-9.938-3.14-14.766-4.219c-4.83-1.077-9.306-1.874-13.43-2.392
		c-4.127-0.514-7.313-0.772-9.563-0.772c-0.752,0-2.134-0.046-4.148-0.141c-2.018-0.093-4.219-0.116-6.609-0.07
		c-2.391,0.048-4.711,0.211-6.961,0.492c-2.25,0.28-4.032,0.798-5.344,1.547c-1.125,0.657-2.158,1.782-3.094,3.375
		c-0.938,1.595-1.853,3.233-2.742,4.922c-0.893,1.688-1.807,3.164-2.742,4.43c-0.938,1.267-1.969,1.898-3.094,1.898
		c-0.189,0-0.33-0.046-0.422-0.142c-0.095,0-0.235-0.046-0.422-0.141c-0.189-0.092-0.376-0.281-0.563-0.563
		c-0.189-0.281-0.376-0.914-0.563-1.898c-0.189-0.984-0.352-2.413-0.492-4.289c-0.141-1.874-0.211-4.405-0.211-7.594
		c0-1.406,0.679-2.694,2.039-3.867c1.357-1.171,3.115-2.226,5.273-3.164c2.155-0.936,4.5-1.733,7.031-2.391
		c2.531-0.655,4.943-1.218,7.242-1.688c2.296-0.468,4.335-0.819,6.117-1.055c1.779-0.233,2.999-0.353,3.656-0.353
		c4.219,0,9.187,0.26,14.906,0.773c5.717,0.517,11.602,1.431,17.648,2.742c6.047,1.313,12.045,3.048,18,5.203
		c5.952,2.157,11.25,4.852,15.891,8.086c4.641,3.233,8.413,7.102,11.32,11.602c2.904,4.5,4.359,9.703,4.359,15.609
		c0.654,4.219-0.07,8.109-2.18,11.672c-2.109,3.563-5.017,6.75-8.719,9.563c-3.705,2.813-7.875,5.252-12.516,7.313
		c-4.641,2.063-9.141,3.681-13.5,4.852c-4.359,1.175-8.297,1.923-11.813,2.25c-3.516,0.33-5.931,0.165-7.242-0.491v1.688
		c0,4.408,0.352,8.719,1.055,12.938c0.703,4.219,1.055,8.531,1.055,12.938c0,0.471-0.049,1.244-0.141,2.32
		c-0.095,1.079-0.352,2.108-0.773,3.094c-0.421,0.985-1.009,1.807-1.758,2.461C304.88,144.44,303.896,144.63,302.679,144.348z"/>
	<path d="M434.021,81.208c-1.125,0.563-2.813,1.36-5.063,2.392c-2.25,1.032-4.781,2.204-7.594,3.516
		c-2.813,1.314-5.79,2.696-8.931,4.148c-3.143,1.454-6.116,2.837-8.93,4.147c-2.813,1.314-5.368,2.485-7.664,3.516
		c-2.299,1.033-3.962,1.782-4.992,2.25l0.422,37.548c0,0.376-0.446,1.032-1.336,1.969c-0.893,0.938-1.617,1.501-2.18,1.688
		c-1.969,0.472-3.354-0.303-4.148-2.319c-0.798-2.016-1.36-4.662-1.688-7.945c-0.33-3.28-0.587-6.82-0.773-10.617
		c-0.189-3.797-0.633-7.242-1.336-10.336s-1.853-5.483-3.445-7.172c-1.596-1.688-3.938-2.061-7.031-1.125
		c-0.095-0.187-0.211-0.608-0.352-1.266c-0.141-0.654-0.211-1.076-0.211-1.267c0-1.593,0.397-2.672,1.195-3.233
		c0.795-0.563,1.688-1.056,2.672-1.478c0.984-0.422,1.898-0.983,2.742-1.688c0.844-0.704,1.266-1.944,1.266-3.728
		c0-4.968-0.211-9.914-0.633-14.836c-0.422-4.922-0.868-9.866-1.336-14.836c-0.471-4.968-0.914-9.914-1.336-14.836
		c-0.422-4.922-0.633-9.866-0.633-14.836c0-0.374,0-0.984,0-1.828s0.021-1.733,0.07-2.672c0.046-0.937,0.07-1.828,0.07-2.672
		s0-1.406,0-1.688c0.373-1.029,0.89-1.639,1.547-1.828c0.654-0.187,1.357-0.28,2.109-0.28c0.654,0,1.382,0.095,2.18,0.28
		c0.795,0.189,1.241,0.799,1.336,1.828l7.313,62.859c0,0.281,0.232,0.914,0.703,1.897c0.468,0.984,0.844,1.571,1.125,1.759h0.703
		h0.984c0.563-0.093,1.568-0.353,3.023-0.773c1.452-0.422,4.054-1.406,7.805-2.953c3.748-1.547,8.951-3.913,15.609-7.102
		c6.655-3.187,15.561-7.545,26.719-13.078l0.844-42.609c0-0.749,0.232-1.568,0.703-2.461c0.469-0.89,1.076-1.709,1.828-2.461
		c0.749-0.749,1.522-1.357,2.32-1.828c0.795-0.468,1.568-0.703,2.32-0.703c1.125,0,2.015,0.212,2.672,0.634
		c0.653,0.422,0.983,1.477,0.983,3.164c0,0.376-0.234,1.032-0.703,1.969c-0.471,0.938-0.798,1.501-0.983,1.688
		c0,0.471-0.024,1.36-0.07,2.672c-0.049,1.314-0.07,2.673-0.07,4.078c0,1.406-0.023,2.768-0.069,4.078
		c-0.05,1.314-0.07,2.204-0.07,2.672c0,10.596,0.141,21.234,0.422,31.922c0.281,10.688,0.795,21.283,1.547,31.781
		c0.093,1.221,0.304,3.424,0.634,6.609c0.326,3.188,0.679,6.608,1.055,10.266c0.373,3.656,0.749,7.126,1.125,10.406
		c0.373,3.283,0.654,5.625,0.844,7.031c0,0.188,0.07,0.541,0.211,1.055c0.141,0.517,0.327,1.079,0.563,1.688
		c0.231,0.61,0.442,1.174,0.633,1.688c0.187,0.517,0.327,0.822,0.422,0.914v1.125v0.703c-0.281,0.281-0.683,0.611-1.195,0.983
		c-0.517,0.377-1.055,0.753-1.617,1.125c-0.563,0.377-1.104,0.729-1.616,1.056c-0.518,0.33-0.868,0.492-1.056,0.492
		c-1.688,0.373-3.094-0.373-4.219-2.25c-1.125-1.874-2.018-4.078-2.672-6.609c-0.657-2.531-1.125-5.038-1.406-7.523
		c-0.281-2.481-0.471-4.239-0.563-5.272c0-0.092-0.024-1.03-0.07-2.813c-0.049-1.778-0.141-4.028-0.281-6.75
		c-0.141-2.718-0.306-5.766-0.492-9.141c-0.188-3.375-0.399-6.726-0.633-10.055c-0.234-3.326-0.517-6.49-0.844-9.492
		c-0.33-2.999-0.633-5.53-0.914-7.594L434.021,81.208z"/>
	<path d="M538.507,117.208c-2.907,1.597-5.393,3.54-7.453,5.836c-2.063,2.299-4.147,4.5-6.258,6.609s-4.454,3.916-7.031,5.414
		c-2.58,1.501-5.836,2.25-9.772,2.25c-4.5,0-8.578-0.984-12.234-2.953s-6.891-4.592-9.703-7.875
		c-2.813-3.28-5.252-7.031-7.313-11.25c-2.063-4.219-3.751-8.554-5.063-13.008c-1.313-4.451-2.299-8.835-2.953-13.148
		c-0.656-4.311-0.983-8.202-0.983-11.672c-1.033-6.75-0.868-12.045,0.492-15.891c1.356-3.844,2.999-6.28,4.922-7.313
		c1.92-1.03,3.586-0.772,4.992,0.773c1.405,1.546,1.639,4.289,0.702,8.227c-0.188,0.47-0.376,1.244-0.563,2.32
		c-0.189,1.079-0.353,2.18-0.492,3.305s-0.281,2.181-0.422,3.164c-0.141,0.984-0.211,1.666-0.211,2.039
		c0,2.626,0.257,5.72,0.772,9.281c0.515,3.563,1.313,7.291,2.392,11.18c1.076,3.893,2.437,7.734,4.078,11.531
		c1.639,3.797,3.586,7.196,5.836,10.195c2.25,3.002,4.827,5.438,7.733,7.313c2.904,1.877,6.14,2.813,9.703,2.813
		c2.25,0,4.804-1.102,7.664-3.306c2.858-2.201,5.576-4.827,8.156-7.875c2.577-3.045,4.757-6.209,6.539-9.492
		c1.779-3.279,2.718-5.997,2.813-8.155c0-1.217,0.021-3.28,0.07-6.188c0.046-2.903,0.07-5.977,0.07-9.211
		c0-3.233-0.024-6.304-0.07-9.211c-0.049-2.905-0.07-4.922-0.07-6.047c0.749-1.313,1.548-2.296,2.392-2.953
		c0.844-0.655,1.92-0.984,3.233-0.984c1.498,0,2.742,1.01,3.728,3.023c0.983,2.017,1.779,4.57,2.391,7.664
		c0.608,3.094,1.03,6.469,1.267,10.125c0.231,3.656,0.422,7.172,0.563,10.547s0.257,6.354,0.353,8.93
		c0.092,2.58,0.28,4.289,0.563,5.134c0.654,2.53,1.593,5.344,2.813,8.438c1.217,3.094,2.391,6.117,3.516,9.07
		s2.109,5.648,2.953,8.086c0.844,2.438,1.266,4.268,1.266,5.483c0,1.878-0.541,3.003-1.617,3.375
		c-1.078,0.376-2.415,0.563-4.008,0.563c-1.969,0-3.424-0.492-4.358-1.477c-0.938-0.984-1.643-2.25-2.109-3.798
		c-0.471-1.547-0.822-3.279-1.055-5.202c-0.235-1.921-0.634-3.867-1.195-5.837c-0.563-1.969-1.36-3.817-2.391-5.555
		C542.114,119.763,540.567,118.333,538.507,117.208z"/>
	<path d="M568.46,54.348c-0.657-5.53-1.406-10.218-2.25-14.063c-0.844-3.843-1.244-7.031-1.195-9.563
		c0.046-2.531,0.819-4.477,2.32-5.837c1.498-1.357,4.265-2.319,8.297-2.883c0.188,1.314,0.492,3.705,0.914,7.172
		c0.422,3.471,0.865,7.432,1.336,11.884c0.468,4.454,0.96,9.095,1.478,13.922c0.514,4.83,1.055,9.234,1.616,13.219
		c0.563,3.986,1.125,7.267,1.688,9.844c0.563,2.58,1.125,3.775,1.688,3.586c2.25,0,4.477-0.373,6.681-1.125
		c2.201-0.749,4.521-1.125,6.961-1.125c3.748,0,7.756,0.353,12.022,1.056c4.266,0.703,8.509,1.758,12.728,3.164
		c4.219,1.405,8.271,3.188,12.164,5.344c3.889,2.158,7.313,4.688,10.266,7.594c2.953,2.907,5.319,6.212,7.103,9.914
		c1.778,3.705,2.672,7.805,2.672,12.305c0,5.814-1.432,10.432-4.289,13.853c-2.861,3.424-6.469,6.024-10.828,7.805
		c-4.359,1.782-9.095,2.907-14.203,3.375c-5.111,0.471-9.963,0.703-14.555,0.703c-6.188,0-11.369-0.773-15.539-2.32
		c-4.173-1.547-7.572-3.678-10.195-6.397c-2.626-2.718-4.619-5.906-5.977-9.563c-1.36-3.655-2.369-7.64-3.023-11.953
		c-0.657-4.311-1.125-8.811-1.406-13.5c-0.28-4.687-0.656-9.373-1.125-14.063c-0.095-0.844-0.399-2.834-0.914-5.978
		c-0.517-3.14-1.104-6.539-1.758-10.194c-0.657-3.656-1.244-7.054-1.758-10.195C568.857,57.185,568.552,55.192,568.46,54.348z
		 M586.46,103.567c-1.313,5.438-1.009,10.174,0.914,14.203c1.92,4.031,4.732,7.313,8.438,9.844
		c3.701,2.531,7.967,4.289,12.797,5.273c4.826,0.983,9.607,1.148,14.344,0.491c4.731-0.653,9.021-2.154,12.867-4.5
		c3.843-2.342,6.654-5.575,8.438-9.703c0-3.375-0.772-6.42-2.32-9.141c-1.547-2.718-3.563-5.154-6.047-7.313
		c-2.484-2.155-5.321-4.009-8.508-5.556c-3.188-1.547-6.447-2.834-9.772-3.867c-3.329-1.029-6.609-1.804-9.845-2.319
		c-3.233-0.515-6.116-0.773-8.647-0.773c-4.127,0-7.268,1.195-9.422,3.586C587.536,96.184,586.46,99.443,586.46,103.567z"/>
</g>
</svg>
